<svg width="31" height="31" viewBox="0 0 31 31" fill="none" xmlns="http://www.w3.org/2000/svg">
<path d="M15.7803 30.5C13.7053 30.5 11.7553 30.1062 9.93027 29.3187C8.10527 28.5312 6.51777 27.4625 5.16777 26.1125C3.81777 24.7625 2.74902 23.175 1.96152 21.35C1.17402 19.525 0.780273 17.575 0.780273 15.5C0.780273 13.425 1.17402 11.475 1.96152 9.65C2.74902 7.825 3.81777 6.2375 5.16777 4.8875C6.51777 3.5375 8.10527 2.46875 9.93027 1.68125C11.7553 0.89375 13.7053 0.5 15.7803 0.5C17.8553 0.5 19.8053 0.89375 21.6303 1.68125C23.4553 2.46875 25.0428 3.5375 26.3928 4.8875C27.7428 6.2375 28.8115 7.825 29.599 9.65C30.3865 11.475 30.7803 13.425 30.7803 15.5C30.7803 17.575 30.3865 19.525 29.599 21.35C28.8115 23.175 27.7428 24.7625 26.3928 26.1125C25.0428 27.4625 23.4553 28.5312 21.6303 29.3187C19.8053 30.1062 17.8553 30.5 15.7803 30.5ZM15.7803 27.5C19.1303 27.5 21.9678 26.3375 24.2928 24.0125C26.6178 21.6875 27.7803 18.85 27.7803 15.5C27.7803 15.325 27.774 15.1437 27.7615 14.9562C27.749 14.7687 27.7428 14.6125 27.7428 14.4875C27.6178 15.2125 27.2803 15.8125 26.7303 16.2875C26.1803 16.7625 25.5303 17 24.7803 17H21.7803C20.9553 17 20.249 16.7063 19.6615 16.1188C19.074 15.5313 18.7803 14.825 18.7803 14V12.5H12.7803V9.5C12.7803 8.675 13.074 7.96875 13.6615 7.38125C14.249 6.79375 14.9553 6.5 15.7803 6.5H17.2803C17.2803 5.925 17.4365 5.41875 17.749 4.98125C18.0615 4.54375 18.4428 4.1875 18.8928 3.9125C18.3928 3.7875 17.8865 3.6875 17.374 3.6125C16.8615 3.5375 16.3303 3.5 15.7803 3.5C12.4303 3.5 9.59277 4.6625 7.26777 6.9875C4.94277 9.3125 3.78027 12.15 3.78027 15.5H11.2803C12.9303 15.5 14.3428 16.0875 15.5178 17.2625C16.6928 18.4375 17.2803 19.85 17.2803 21.5V23H12.7803V27.125C13.2803 27.25 13.774 27.3438 14.2615 27.4062C14.749 27.4688 15.2553 27.5 15.7803 27.5Z" fill="#F1F1F1"/>
</svg>
