<svg width="34" height="25" viewBox="0 0 34 25" fill="none" xmlns="http://www.w3.org/2000/svg">
<path d="M21.7803 24.5C18.4303 24.5 15.5928 23.3375 13.2678 21.0125C10.9428 18.6875 9.78027 15.85 9.78027 12.5C9.78027 9.175 10.9428 6.34375 13.2678 4.00625C15.5928 1.66875 18.4303 0.5 21.7803 0.5C25.1053 0.5 27.9365 1.66875 30.274 4.00625C32.6115 6.34375 33.7803 9.175 33.7803 12.5C33.7803 15.85 32.6115 18.6875 30.274 21.0125C27.9365 23.3375 25.1053 24.5 21.7803 24.5ZM21.7803 21.5C24.2803 21.5 26.4053 20.625 28.1553 18.875C29.9053 17.125 30.7803 15 30.7803 12.5C30.7803 10 29.9053 7.875 28.1553 6.125C26.4053 4.375 24.2803 3.5 21.7803 3.5C19.2803 3.5 17.1553 4.375 15.4053 6.125C13.6553 7.875 12.7803 10 12.7803 12.5C12.7803 15 13.6553 17.125 15.4053 18.875C17.1553 20.625 19.2803 21.5 21.7803 21.5ZM25.1928 18.0875L27.3303 15.95L23.2803 11.9V6.5H20.2803V13.1375L25.1928 18.0875ZM2.28027 8V5H8.28027V8H2.28027ZM0.780273 14V11H8.28027V14H0.780273ZM2.28027 20V17H8.28027V20H2.28027Z" fill="#F1F1F1"/>
</svg>
