<svg width="21" height="21" viewBox="0 0 21 21" fill="none" xmlns="http://www.w3.org/2000/svg">
<path d="M8.79035 17.6183C8.36731 17.0073 8.03437 16.3727 7.79152 15.7147C7.54867 15.0566 7.34107 14.3202 7.16872 13.5055H3.71397C4.231 14.5866 4.91647 15.4718 5.77037 16.1612C6.62427 16.8506 7.63093 17.3363 8.79035 17.6183ZM3.26743 12.1424H6.91021C6.8632 11.7664 6.83187 11.4334 6.8162 11.1436C6.80053 10.8537 6.7927 10.5129 6.7927 10.1213C6.7927 9.8079 6.79661 9.48671 6.80445 9.15768C6.81228 8.82866 6.8397 8.45263 6.8867 8.0296H3.26743C3.15776 8.40563 3.08333 8.75032 3.04417 9.06367C3.005 9.37703 2.98541 9.72956 2.98541 10.1213C2.98541 10.5286 3.005 10.8733 3.04417 11.1553C3.08333 11.4374 3.15776 11.7664 3.26743 12.1424ZM3.71397 6.6665H7.14522C7.33324 5.8361 7.5565 5.07621 7.81502 4.38682C8.07354 3.69744 8.40648 3.07073 8.81385 2.50668C7.51342 2.96105 6.47934 3.49767 5.71162 4.11655C4.94389 4.73543 4.27801 5.58541 3.71397 6.6665ZM8.60233 6.6665H12.9502C12.6995 5.67942 12.394 4.82944 12.0336 4.11655C11.6732 3.40367 11.2424 2.77304 10.741 2.22466C10.2396 2.7887 9.80876 3.43892 9.4484 4.17531C9.08804 4.9117 8.80601 5.74209 8.60233 6.6665ZM14.4073 6.6665H17.7915C17.2588 5.67942 16.5498 4.82944 15.6646 4.11655C14.7794 3.40367 13.7884 2.87488 12.6916 2.53018C13.099 3.09423 13.4359 3.72094 13.7022 4.41033C13.9686 5.09971 14.2036 5.85177 14.4073 6.6665ZM10.7645 20.0625C9.37006 20.0625 8.06571 19.8079 6.85145 19.2987C5.63719 18.7895 4.57961 18.0884 3.67871 17.1953C2.77781 16.3022 2.06884 15.2486 1.5518 14.0343C1.03476 12.82 0.776245 11.5157 0.776245 10.1213C0.776245 8.72682 1.03476 7.41855 1.5518 6.19646C2.06884 4.97437 2.77781 3.90896 3.67871 3.00022C4.57961 2.09149 5.63719 1.37468 6.85145 0.849809C8.06571 0.324936 9.37006 0.0625 10.7645 0.0625C12.1589 0.0625 13.4633 0.324936 14.6775 0.849809C15.8918 1.37468 16.9494 2.09149 17.8503 3.00022C18.7512 3.90896 19.4641 4.97437 19.9889 6.19646C20.5138 7.41855 20.7762 8.72682 20.7762 10.1213C20.7762 10.3249 20.7684 10.5247 20.7527 10.7205C20.7371 10.9164 20.7136 11.1162 20.6822 11.3198H18.4026C18.4339 11.1162 18.4613 10.9242 18.4848 10.7441C18.5083 10.5639 18.5201 10.3563 18.5201 10.1213C18.5201 9.72956 18.4966 9.37703 18.4496 9.06367C18.4026 8.75032 18.3321 8.40563 18.2381 8.0296H14.6188C14.6345 8.49963 14.654 8.88349 14.6775 9.18118C14.701 9.47887 14.7128 9.79223 14.7128 10.1213C14.7128 10.2623 14.7089 10.415 14.701 10.5795L14.6658 11.3198H13.2322C13.2478 11.0535 13.2635 10.8341 13.2792 10.6618C13.2949 10.4894 13.3027 10.3093 13.3027 10.1213C13.3027 9.8079 13.2988 9.50237 13.2909 9.20469C13.2831 8.907 13.2557 8.5153 13.2087 8.0296H8.34381C8.28114 8.5153 8.24197 8.907 8.2263 9.20469C8.21064 9.50237 8.2028 9.8079 8.2028 10.1213C8.2028 10.4346 8.21064 10.7284 8.2263 11.0026C8.24197 11.2768 8.28114 11.6567 8.34381 12.1424H12.0101V13.5055H8.60233C8.90002 14.6649 9.2173 15.5815 9.55415 16.2552C9.89101 16.9289 10.2866 17.4695 10.741 17.8768C10.9917 17.6262 11.2267 17.3441 11.446 17.0308C11.6654 16.7174 11.8534 16.3884 12.0101 16.0437V19.945C11.7907 19.992 11.5831 20.0233 11.3873 20.039C11.1914 20.0547 10.9838 20.0625 10.7645 20.0625ZM18.2381 19.1459L15.6294 16.5372V18.3704H13.4202V12.73H19.0606V14.9391H17.204L19.7892 17.5478L18.2381 19.1459Z" fill="white"/>
</svg>
