<svg width="20" height="25" viewBox="0 0 20 25" fill="none" xmlns="http://www.w3.org/2000/svg">
<path d="M0.276245 20.9232V17.4829H2.1329V10.7662C2.1329 9.01877 2.63802 7.44425 3.64826 6.04266C4.6585 4.64107 6.00093 3.73094 7.67556 3.31229V2.76621C7.67556 2.13671 7.89589 1.60163 8.33653 1.16097C8.7772 0.720323 9.31228 0.5 9.94177 0.5C10.5713 0.5 11.1064 0.720323 11.547 1.16097C11.9877 1.60163 12.208 2.13671 12.208 2.76621V3.31229C13.9008 3.73094 15.2478 4.63652 16.2489 6.02901C17.2501 7.4215 17.7506 9.00057 17.7506 10.7662V17.4829H19.6073V20.9232H0.276245ZM9.96908 24.5C9.27829 24.5 8.68694 24.2567 8.19502 23.7701C7.70309 23.2836 7.45713 22.6986 7.45713 22.0154H12.4537C12.4537 22.7071 12.2104 23.2941 11.7239 23.7764C11.2373 24.2588 10.6523 24.5 9.96908 24.5Z" fill="white"/>
</svg>
