<svg width="23" height="30" viewBox="0 0 23 30" fill="none" xmlns="http://www.w3.org/2000/svg">
<path d="M7.75 30C6.925 30 6.21875 29.7063 5.63125 29.1188C5.04375 28.5312 4.75 27.825 4.75 27V25.5C4.75 24.325 5.00625 23.2375 5.51875 22.2375C6.03125 21.2375 6.7 20.4 7.525 19.725L6.5875 13.5H3.25C2.425 13.5 1.71875 13.2063 1.13125 12.6188C0.54375 12.0313 0.25 11.325 0.25 10.5V4.5C0.25 3.675 0.54375 2.96875 1.13125 2.38125C1.71875 1.79375 2.425 1.5 3.25 1.5H10.75V0H16.75V1.5H22.7125L19.975 19.725C20.8 20.4 21.4688 21.2375 21.9813 22.2375C22.4937 23.2375 22.75 24.325 22.75 25.5V27C22.75 27.825 22.4563 28.5312 21.8688 29.1188C21.2812 29.7063 20.575 30 19.75 30H7.75ZM6.1375 10.5L5.2375 4.5H3.25V10.5H6.1375ZM13.75 25.5C14.175 25.5 14.5313 25.3562 14.8188 25.0687C15.1063 24.7812 15.25 24.425 15.25 24C15.25 23.575 15.1063 23.2188 14.8188 22.9313C14.5313 22.6438 14.175 22.5 13.75 22.5C13.325 22.5 12.9688 22.6438 12.6813 22.9313C12.3938 23.2188 12.25 23.575 12.25 24C12.25 24.425 12.3938 24.7812 12.6813 25.0687C12.9688 25.3562 13.325 25.5 13.75 25.5ZM10.3 18H17.2L19.225 4.5H8.275L10.3 18ZM7.75 27H19.75V25.5C19.75 24.25 19.3125 23.1875 18.4375 22.3125C17.5625 21.4375 16.5 21 15.25 21H12.25C11 21 9.9375 21.4375 9.0625 22.3125C8.1875 23.1875 7.75 24.25 7.75 25.5V27Z" fill="#091D31"/>
</svg>
