<svg width="28" height="25" viewBox="0 0 28 25" fill="none" xmlns="http://www.w3.org/2000/svg">
<path d="M3.33341 24.5C2.60008 24.5 1.9723 24.2389 1.45008 23.7167C0.927859 23.1944 0.666748 22.5667 0.666748 21.8333V5.83333C0.666748 5.1 0.927859 4.47222 1.45008 3.95C1.9723 3.42778 2.60008 3.16667 3.33341 3.16667H16.8001C16.7112 3.61111 16.6667 4.05556 16.6667 4.5C16.6667 4.94444 16.7112 5.38889 16.8001 5.83333H3.33341L14.0001 12.5L18.8667 9.46667C19.1779 9.75556 19.5167 10.0056 19.8834 10.2167C20.2501 10.4278 20.6334 10.6111 21.0334 10.7667L14.0001 15.1667L3.33341 8.5V21.8333H24.6667V11.0333C25.1779 10.9222 25.6556 10.7667 26.1001 10.5667C26.5445 10.3667 26.9556 10.1222 27.3334 9.83333V21.8333C27.3334 22.5667 27.0723 23.1944 26.5501 23.7167C26.0279 24.2389 25.4001 24.5 24.6667 24.5H3.33341ZM23.3334 8.5C22.2223 8.5 21.2779 8.11111 20.5001 7.33333C19.7223 6.55556 19.3334 5.61111 19.3334 4.5C19.3334 3.38889 19.7223 2.44444 20.5001 1.66667C21.2779 0.888889 22.2223 0.5 23.3334 0.5C24.4445 0.5 25.389 0.888889 26.1667 1.66667C26.9445 2.44444 27.3334 3.38889 27.3334 4.5C27.3334 5.61111 26.9445 6.55556 26.1667 7.33333C25.389 8.11111 24.4445 8.5 23.3334 8.5Z" fill="#F1F1F1"/>
</svg>
