<svg width="46" height="38" viewBox="0 0 46 38" fill="none" xmlns="http://www.w3.org/2000/svg">
<mask id="mask0_221_1494" style="mask-type:alpha" maskUnits="userSpaceOnUse" x="4" y="0" width="38" height="38">
<rect x="4" width="38" height="38" fill="#D9D9D9"/>
</mask>
<g mask="url(#mask0_221_1494)">
<path d="M29.0958 21.2958L27.1694 19.3695C27.7059 17.7069 27.3497 16.2819 26.1006 15.0944C24.8515 13.9069 23.4309 13.5551 21.8388 14.0389L19.9124 12.1125C20.361 11.8486 20.847 11.6551 21.3704 11.532C21.8938 11.4088 22.437 11.3472 22.9999 11.3472C24.9087 11.3472 26.5294 12.0135 27.8621 13.3462C29.1947 14.6788 29.861 16.2995 29.861 18.2083C29.861 18.7713 29.795 19.3188 29.6631 19.851C29.5312 20.3832 29.342 20.8648 29.0958 21.2958ZM34.1888 26.3625L32.368 24.5681C33.5643 23.6796 34.6132 22.6922 35.5149 21.6059C36.4165 20.5196 37.1092 19.387 37.593 18.2083C36.2735 15.3671 34.323 13.1175 31.7413 11.4594C29.1595 9.80124 26.3337 8.97218 23.2638 8.97218C22.2698 8.97218 21.2626 9.06015 20.2423 9.23608C19.2219 9.41202 18.373 9.63193 17.6957 9.89582L15.6638 7.83748C16.6402 7.40647 17.7969 7.04802 19.1339 6.76212C20.471 6.47625 21.8036 6.33332 23.1319 6.33332C26.9758 6.33332 30.4592 7.41746 33.5819 9.58576C36.7046 11.754 38.9828 14.6282 40.4166 18.2083C39.7569 19.8532 38.9014 21.364 37.8503 22.7406C36.7991 24.1172 35.5786 25.3245 34.1888 26.3625ZM35.9833 35.5722L29.3333 29.0278C28.4096 29.3708 27.4047 29.6325 26.3183 29.8128C25.232 29.9932 24.1259 30.0833 22.9999 30.0833C19.1032 30.0833 15.589 28.9992 12.4576 26.8309C9.32608 24.6626 7.03464 21.7884 5.58325 18.2083C6.11982 16.8273 6.84112 15.5013 7.74715 14.2302C8.65316 12.9591 9.73511 11.7694 10.993 10.6611L6.21659 5.85828L8.06378 3.98468L37.7513 33.6722L35.9833 35.5722ZM12.8138 12.5083C11.9078 13.212 11.0457 14.0873 10.2277 15.134C9.40963 16.1808 8.79388 17.2056 8.38045 18.2083C9.71749 21.0495 11.6989 23.2992 14.3246 24.9573C16.9503 26.6154 19.9124 27.4445 23.211 27.4445C23.9675 27.4445 24.7108 27.3983 25.4409 27.3059C26.171 27.2136 26.7648 27.0838 27.2222 26.9167L25.0583 24.7263C24.768 24.8407 24.4381 24.9265 24.0687 24.9836C23.6992 25.0408 23.343 25.0694 22.9999 25.0694C21.1087 25.0694 19.4924 24.4075 18.151 23.0837C16.8095 21.7598 16.1388 20.1347 16.1388 18.2083C16.1388 17.8477 16.1674 17.4914 16.2246 17.1396C16.2818 16.7877 16.3675 16.4578 16.4819 16.15L12.8138 12.5083Z" fill="#BDCFD0"/>
</g>
</svg>
