<svg width="24" height="24" viewBox="0 0 24 24" fill="none" xmlns="http://www.w3.org/2000/svg">
<mask id="mask0_567_939" style="mask-type:alpha" maskUnits="userSpaceOnUse" x="0" y="0" width="24" height="24">
<rect width="24" height="24" fill="#D9D9D9"/>
</mask>
<g mask="url(#mask0_567_939)">
<path d="M9.49441 18.1554C8.75599 18.1554 8.12971 17.8984 7.61556 17.3842C7.10143 16.8701 6.84436 16.2438 6.84436 15.5054V3.84454C6.84436 3.10613 7.10143 2.47985 7.61556 1.96572C8.12971 1.45159 8.75599 1.19452 9.49441 1.19452H18.1553C18.8937 1.19452 19.52 1.45159 20.0341 1.96572C20.5482 2.47985 20.8053 3.10613 20.8053 3.84454V15.5054C20.8053 16.2438 20.5482 16.8701 20.0341 17.3842C19.52 17.8984 18.8937 18.1554 18.1553 18.1554H9.49441ZM9.49441 15.5054H18.1553V3.84454H9.49441V15.5054ZM4.84436 22.8055C4.10594 22.8055 3.47967 22.5484 2.96554 22.0343C2.4514 21.5201 2.19434 20.8939 2.19434 20.1554V5.84454H4.84436V20.1554H16.1553V22.8055H4.84436Z" fill="#091D31"/>
</g>
</svg>
