<svg width="24" height="24" viewBox="0 0 24 24" fill="none" xmlns="http://www.w3.org/2000/svg">
<mask id="mask0_146_450" style="mask-type:alpha" maskUnits="userSpaceOnUse" x="0" y="0" width="24" height="24">
<rect width="24" height="24" fill="#D9D9D9"/>
</mask>
<g mask="url(#mask0_146_450)">
<path d="M9.49459 18.1554C8.75618 18.1554 8.12989 17.8984 7.61574 17.3842C7.10161 16.8701 6.84454 16.2438 6.84454 15.5054V3.84454C6.84454 3.10613 7.10161 2.47985 7.61574 1.96572C8.12989 1.45159 8.75618 1.19452 9.49459 1.19452H18.1554C18.8939 1.19452 19.5201 1.45159 20.0343 1.96572C20.5484 2.47985 20.8055 3.10613 20.8055 3.84454V15.5054C20.8055 16.2438 20.5484 16.8701 20.0343 17.3842C19.5201 17.8984 18.8939 18.1554 18.1554 18.1554H9.49459ZM9.49459 15.5054H18.1554V3.84454H9.49459V15.5054ZM4.84454 22.8055C4.10613 22.8055 3.47985 22.5484 2.96572 22.0343C2.45159 21.5201 2.19452 20.8939 2.19452 20.1554V5.84454H4.84454V20.1554H16.1554V22.8055H4.84454Z" fill="white"/>
</g>
</svg>
