<svg width="170" height="40" viewBox="0 0 170 40" fill="none" xmlns="http://www.w3.org/2000/svg">
<path d="M15.5714 38.4285C11.7143 38.4285 7.85714 37 4.71428 34.4285L4.14285 34L10 27.1428C10.1429 27 10.2857 26.8571 10.4286 26.8571C10.5714 26.8571 10.8571 26.8571 11 27C11.1429 27.1428 11.2857 27.2857 11.2857 27.4285C11.2857 27.5714 11.2857 27.8571 11.1429 28L6.28571 33.5714C10.4286 36.5714 15.4286 37.5714 20 36.1428L25.7143 34.4285L31.4286 36.1428C36.1429 37.5714 41 36.5714 45.1429 33.5714L40 28.1428C39.8571 28 39.8571 27.8571 39.8571 27.5714C39.8571 27.4285 40 27.1428 40.1429 27.1428C40.2857 27 40.4286 27 40.7143 27C40.8571 27 41.1429 27.1428 41.1429 27.2857L47.1429 34L46.4286 34.2857C41.8571 38 36.1429 39.1428 30.8571 37.5714L25.5714 36L20.2857 37.5714C18.7143 38.1428 17.1429 38.2857 15.5714 38.4285Z" fill="white"/>
<path d="M15.5714 38.4285C11.7143 38.4285 7.85714 37 4.71428 34.4285L4.14285 34L10 27.1428C10.1429 27 10.2857 26.8571 10.4286 26.8571C10.5714 26.8571 10.8571 26.8571 11 27C11.1429 27.1428 11.2857 27.2857 11.2857 27.4285C11.2857 27.5714 11.2857 27.8571 11.1429 28L6.28571 33.5714C10.4286 36.5714 15.4286 37.5714 20 36.1428L25.7143 34.4285L31.4286 36.1428C36.1429 37.5714 41 36.5714 45.1429 33.5714L40 28.1428C39.8571 28 39.8571 27.8571 39.8571 27.5714C39.8571 27.4285 40 27.1428 40.1429 27.1428C40.2857 27 40.4286 27 40.7143 27C40.8571 27 41.1429 27.1428 41.1429 27.2857L47.1429 34L46.4286 34.2857C41.8571 38 36.1429 39.1428 30.8571 37.5714L25.5714 36L20.2857 37.5714C18.7143 38.1428 17.1429 38.2857 15.5714 38.4285Z" fill="white" stroke="white" stroke-width="0.54" stroke-linejoin="round"/>
<path d="M25.5714 35.4286L14 28.7143C12.7143 27.7143 11.7143 26.5714 11 25.1428C10.2857 23.7143 9.85714 22.1428 10 20.5714V13.5714L14.5714 15.1428C14.7143 15.1428 14.7143 15.1428 14.8571 15.2857C14.8571 15.2857 15 15.4286 15 15.5714C15 15.7143 15 15.7143 15.1429 15.8571C15.1429 16 15.1429 16 15.1429 16.1428C15.1429 16.2857 15 16.2857 15 16.4286C15 16.4286 14.8571 16.5714 14.7143 16.5714C14.5714 16.5714 14.5714 16.5714 14.4286 16.5714C14.2857 16.5714 14.2857 16.5714 14.1429 16.5714L11.2857 15.5714V20.5714C11.2857 22 11.5714 23.2857 12.1429 24.5714C12.7143 25.8571 13.5714 26.8571 14.7143 27.7143L25.5714 34L36.4286 27.7143C37.5714 26.8571 38.4286 25.8571 39 24.5714C39.5714 23.2857 39.8571 22 39.8571 20.5714V15.5714L36.7143 16.5714C36.5714 16.5714 36.2857 16.5714 36.1429 16.5714C36 16.4286 35.8571 16.2857 35.8571 16.1428C35.8571 16 35.8571 15.7143 35.8571 15.5714C36 15.4286 36.1429 15.2857 36.2857 15.2857L41.2857 13.7143L41.4286 20.5714C41.4286 22.1428 41.1429 23.7143 40.4286 25.1428C39.7143 26.5714 38.7143 27.8571 37.4286 28.7143L25.5714 35.4286Z" fill="white" stroke="white" stroke-width="0.54" stroke-linecap="round" stroke-linejoin="round"/>
<path d="M25.5714 24.1428L15.8571 18.5714L25.5714 32.5714L35.1429 18.5714L25.5714 24.1428Z" fill="white"/>
<path d="M25.5714 0L16.1429 16L25.5714 21.8571L35.1429 16.1429L25.5714 0Z" fill="white"/>
<path d="M6 29C5.85714 29 5.71428 29 5.57143 28.8571C5.42857 28.7143 5.42857 28.5714 5.28571 28.4285C4.85714 26.4286 3.57143 24.1428 1.42857 22L0.571426 21.1428L1.71428 20.8571C4.28571 20.1428 6.28571 20 8.28571 20.5714C8.42857 20.5714 8.57143 20.7143 8.71428 20.8571C8.85714 21 8.85714 21.2857 8.71428 21.4286C8.71428 21.5714 8.57143 21.7143 8.42857 21.8571C8.28571 22 8.14286 22 7.85714 21.8571C6.42857 21.4286 5 21.4286 3.42857 21.8571C5.14286 23.8571 6.28571 26 6.85714 28C6.85714 28.1428 6.85714 28.1428 6.85714 28.2857C6.85714 28.4285 6.85714 28.4286 6.71428 28.5714C6.71428 28.7143 6.57143 28.7143 6.42857 28.7143C6.28571 29 6.14285 29 6 29Z" fill="white"/>
<path d="M6 29C5.85714 29 5.71428 29 5.57143 28.8571C5.42857 28.7143 5.42857 28.5714 5.28571 28.4285C4.85714 26.4286 3.57143 24.1428 1.42857 22L0.571426 21.1428L1.71428 20.8571C4.28571 20.1428 6.28571 20 8.28571 20.5714C8.42857 20.5714 8.57143 20.7143 8.71428 20.8571C8.85714 21 8.85714 21.2857 8.71428 21.4286C8.71428 21.5714 8.57143 21.7143 8.42857 21.8571C8.28571 22 8.14286 22 7.85714 21.8571C6.42857 21.4286 5 21.4286 3.42857 21.8571C5.14286 23.8571 6.28571 26 6.85714 28C6.85714 28.1428 6.85714 28.1428 6.85714 28.2857C6.85714 28.4285 6.85714 28.4286 6.71428 28.5714C6.71428 28.7143 6.57143 28.7143 6.42857 28.7143C6.28571 29 6.14285 29 6 29Z" fill="white" stroke="white" stroke-width="0.54" stroke-linecap="round" stroke-linejoin="round"/>
<path d="M45.1429 29C45 29 45 29 44.8571 29C44.7143 29 44.7143 28.8572 44.5714 28.8572C44.5714 28.7143 44.4286 28.7143 44.4286 28.5714C44.4286 28.4286 44.4286 28.4286 44.4286 28.2857C44.8571 26.2857 46 24.1429 47.8571 22.1429C46.1429 21.7143 44.7143 21.7143 43.4286 22.1429C43.2857 22.1429 43.2857 22.1429 43.1429 22.1429C43 22.1429 43 22.1429 42.8571 22C42.7143 22 42.7143 21.8571 42.7143 21.8571C42.7143 21.8571 42.5714 21.7143 42.5714 21.5714C42.5714 21.4286 42.5714 21.4286 42.5714 21.2857C42.5714 21.1429 42.5714 21.1429 42.7143 21C42.7143 20.8571 42.8571 20.8571 42.8571 20.8571C42.8571 20.8571 43 20.7143 43.1429 20.7143C45 20.1429 47.1429 20.2857 49.5714 21L50.7143 21.2857L49.8571 22.1429C47.8571 24.2857 46.5714 26.4286 46 28.5714C46 28.7143 45.8571 28.8571 45.7143 29C45.4286 29 45.2857 29 45.1429 29Z" fill="white"/>
<path d="M45.1429 29C45 29 45 29 44.8571 29C44.7143 29 44.7143 28.8572 44.5714 28.8572C44.5714 28.7143 44.4286 28.7143 44.4286 28.5714C44.4286 28.4286 44.4286 28.4286 44.4286 28.2857C44.8571 26.2857 46 24.1429 47.8571 22.1429C46.1429 21.7143 44.7143 21.7143 43.4286 22.1429C43.2857 22.1429 43.2857 22.1429 43.1429 22.1429C43 22.1429 43 22.1429 42.8571 22C42.7143 22 42.7143 21.8571 42.7143 21.8571C42.7143 21.8571 42.5714 21.7143 42.5714 21.5714C42.5714 21.4286 42.5714 21.4286 42.5714 21.2857C42.5714 21.1429 42.5714 21.1429 42.7143 21C42.7143 20.8571 42.8571 20.8571 42.8571 20.8571C42.8571 20.8571 43 20.7143 43.1429 20.7143C45 20.1429 47.1429 20.2857 49.5714 21L50.7143 21.2857L49.8571 22.1429C47.8571 24.2857 46.5714 26.4286 46 28.5714C46 28.7143 45.8571 28.8571 45.7143 29C45.4286 29 45.2857 29 45.1429 29Z" fill="white" stroke="white" stroke-width="0.54" stroke-miterlimit="10"/>
<path d="M14.4286 13.5714C14.2857 13.5714 14.2857 13.5714 14.1428 13.5714C14 13.5714 14 13.4286 13.8571 13.4286C13.8571 13.2857 13.7143 13.2857 13.7143 13.1429C13.7143 13 13.7143 13 13.7143 12.8572L14.2857 7.71429L17.8571 10.1429C18 10.2857 18.1428 10.4286 18.1428 10.5714C18.1428 10.7143 18.1429 11 18 11.1429C17.8571 11.2857 17.7143 11.4286 17.4286 11.4286C17.2857 11.4286 17 11.4286 16.8571 11.2857L15.2857 10.1429L15 12.8572C15 13 14.8571 13.1429 14.7143 13.2857C14.7143 13.5714 14.5714 13.5714 14.4286 13.5714Z" fill="white"/>
<path d="M14.4286 13.5714C14.2857 13.5714 14.2857 13.5714 14.1428 13.5714C14 13.5714 14 13.4286 13.8571 13.4286C13.8571 13.2857 13.7143 13.2857 13.7143 13.1429C13.7143 13 13.7143 13 13.7143 12.8572L14.2857 7.71429L17.8571 10.1429C18 10.2857 18.1428 10.4286 18.1428 10.5714C18.1428 10.7143 18.1429 11 18 11.1429C17.8571 11.2857 17.7143 11.4286 17.4286 11.4286C17.2857 11.4286 17 11.4286 16.8571 11.2857L15.2857 10.1429L15 12.8572C15 13 14.8571 13.1429 14.7143 13.2857C14.7143 13.5714 14.5714 13.5714 14.4286 13.5714Z" fill="white" stroke="white" stroke-width="0.54" stroke-linejoin="round"/>
<path d="M36.5714 13.5714C36.4286 13.5714 36.2857 13.5714 36.1429 13.4286C36 13.2857 36 13.1429 35.8571 13L35.5714 10.2857L34 11.4286C33.8571 11.4286 33.5714 11.4286 33.4286 11.4286C33.2857 11.4286 33.1429 11.2857 33 11.1429C32.8571 11 32.8571 10.8572 32.8571 10.5714C32.8571 10.2857 33 10.2857 33.1429 10.1429L36.5714 7.71429L37.2857 12.8572C37.2857 13 37.2857 13 37.2857 13.1429C37.2857 13.2857 37.1429 13.2857 37.1429 13.4286C37.1429 13.5714 37 13.5714 36.8571 13.5714C36.7143 13.5714 36.7143 13.5714 36.5714 13.5714Z" fill="white"/>
<path d="M36.5714 13.5714C36.4286 13.5714 36.2857 13.5714 36.1429 13.4286C36 13.2857 36 13.1429 35.8571 13L35.5714 10.2857L34 11.4286C33.8571 11.4286 33.5714 11.4286 33.4286 11.4286C33.2857 11.4286 33.1429 11.2857 33 11.1429C32.8571 11 32.8571 10.8572 32.8571 10.5714C32.8571 10.2857 33 10.2857 33.1429 10.1429L36.5714 7.71429L37.2857 12.8572C37.2857 13 37.2857 13 37.2857 13.1429C37.2857 13.2857 37.1429 13.2857 37.1429 13.4286C37.1429 13.5714 37 13.5714 36.8571 13.5714C36.7143 13.5714 36.7143 13.5714 36.5714 13.5714Z" fill="white" stroke="white" stroke-width="0.54" stroke-linecap="round" stroke-linejoin="round"/>
<path d="M107.429 10.7143V19.4286H97V10.7143H62.2857V31.5714H78.1429V28.2857H66.4286V22.7143H78.1429V19.4286H66.4286V14H83.2857V31.5714H87.5714V14H92.8571V31.5714H97.1429V22.7143H107.571V31.4286H111.857V10.7143H107.429Z" fill="white"/>
<path d="M114.429 31.5714H117.714V10.5714H114.429V31.5714Z" fill="white"/>
<path d="M120.714 17.4286H124V18.7143C125.143 17.5714 126.429 17 127.857 17C129.429 17 130.714 17.5714 131.714 18.5714C132.571 19.4286 132.857 20.8571 132.857 22.8571V31.5714H129.571V23.7143C129.571 22.2857 129.429 21.2857 129 20.8571C128.571 20.2857 128 20 127 20C125.857 20 125.143 20.4286 124.714 21.1429C124.286 21.8571 124 23.1429 124 24.8571V31.7143H120.714V17.4286Z" fill="white"/>
<path d="M137.571 24.4286C137.571 25.8571 138 26.8571 138.714 27.7143C139.429 28.5714 140.429 29 141.571 29C142.714 29 143.714 28.5714 144.429 27.7143C145.143 26.8571 145.571 25.7143 145.571 24.4286C145.571 23.1428 145.143 22 144.429 21.1428C143.714 20.2857 142.714 19.8571 141.571 19.8571C140.429 19.8571 139.571 20.2857 138.714 21.1428C137.857 22 137.571 23.1428 137.571 24.4286ZM145.286 10.5714H148.571V31.4286H145.286V30C144 31.2857 142.571 31.8571 141 31.8571C139.143 31.8571 137.429 31.1428 136.286 29.7143C135 28.2857 134.429 26.4286 134.429 24.2857C134.429 22.1428 135 20.4286 136.286 19C137.571 17.5714 139.143 16.8571 141 16.8571C142.714 16.8571 144.143 17.5714 145.429 18.8571L145.286 10.5714Z" fill="white"/>
<path d="M150.857 31.5714H154.143V17.4286H150.857V31.5714ZM150.286 12.7143C150.286 12.1429 150.429 11.7143 150.857 11.2857C151 11.1429 151.286 10.8572 151.571 10.8572C151.857 10.7143 152.143 10.7143 152.429 10.7143C153 10.7143 153.571 10.8572 153.857 11.2857C154.286 11.7143 154.429 12.1429 154.429 12.7143C154.429 13.2857 154.286 13.8572 153.857 14.2857C153.714 14.4286 153.429 14.7143 153.143 14.7143C152.857 14.8572 152.571 14.8572 152.286 14.8572C152 14.8572 151.714 14.8572 151.429 14.7143C151.143 14.5714 151 14.4286 150.714 14.2857C150.571 13.8572 150.286 13.2857 150.286 12.7143Z" fill="white"/>
<path d="M159 24.4286C159 25.8571 159.429 26.8571 160.143 27.7143C160.857 28.5714 161.857 29 163 29C164.143 29 165.143 28.5714 165.857 27.7143C166.571 26.8571 167 25.7143 167 24.4286C167 23.1429 166.571 22 165.857 21.1429C165.143 20.2857 164.143 19.8571 163 19.8571C161.857 19.8571 161 20.2857 160.143 21.1429C159.429 22 159 23.1429 159 24.4286ZM166.714 17.4286H170V31.5714H166.714V30.1429C165.429 31.4286 164 32 162.429 32C160.429 32 158.857 31.2857 157.571 29.8571C156.286 28.4286 155.714 26.5714 155.714 24.4286C155.714 22.2857 156.286 20.5714 157.571 19.1429C158.857 17.7143 160.429 17 162.286 17C163.857 17 165.429 17.7143 166.714 19V17.4286Z" fill="white"/>
</svg>
