<svg width="46" height="39" viewBox="0 0 46 39" fill="none" xmlns="http://www.w3.org/2000/svg">
<mask id="mask0_388_4991" style="mask-type:alpha" maskUnits="userSpaceOnUse" x="4" y="0" width="38" height="39">
<rect x="4" y="0.5" width="38" height="38" fill="#D9D9D9"/>
</mask>
<g mask="url(#mask0_388_4991)">
<path d="M23.003 25.5695C24.9097 25.5695 26.5294 24.9021 27.8621 23.5674C29.1947 22.2327 29.861 20.612 29.861 18.7053C29.861 16.7986 29.1937 15.1789 27.859 13.8462C26.5242 12.5136 24.9035 11.8473 22.9968 11.8473C21.0901 11.8473 19.4704 12.5146 18.1378 13.8493C16.8051 15.184 16.1388 16.8048 16.1388 18.7115C16.1388 20.6182 16.8062 22.2379 18.1409 23.5705C19.4756 24.9032 21.0963 25.5695 23.003 25.5695ZM22.9937 23.0889C21.7752 23.0889 20.7415 22.6624 19.8926 21.8095C19.0438 20.9565 18.6194 19.9207 18.6194 18.7022C18.6194 17.4836 19.0458 16.4499 19.8988 15.6011C20.7518 14.7522 21.7876 14.3278 23.0061 14.3278C24.2247 14.3278 25.2584 14.7543 26.1072 15.6073C26.9561 16.4603 27.3805 17.496 27.3805 18.7146C27.3805 19.9331 26.954 20.9668 26.101 21.8157C25.248 22.6645 24.2123 23.0889 22.9937 23.0889ZM22.9999 30.5834C19.1471 30.5834 15.655 29.4948 12.5235 27.3177C9.39205 25.1407 7.07863 22.2709 5.58325 18.7084C7.07863 15.1459 9.39205 12.2761 12.5235 10.099C15.655 7.92192 19.1471 6.83337 22.9999 6.83337C26.8527 6.83337 30.3448 7.92192 33.4763 10.099C36.6078 12.2761 38.9212 15.1459 40.4166 18.7084C38.9212 22.2709 36.6078 25.1407 33.4763 27.3177C30.3448 29.4948 26.8527 30.5834 22.9999 30.5834ZM22.9955 27.9445C26.1211 27.9445 28.9924 27.1067 31.6093 25.431C34.2262 23.7552 36.2208 21.5144 37.593 18.7084C36.2208 15.9024 34.2277 13.6615 31.6138 11.9858C28.9998 10.3101 26.13 9.47224 23.0044 9.47224C19.8787 9.47224 17.0075 10.3101 14.3905 11.9858C11.7736 13.6615 9.77027 15.9024 8.38045 18.7084C9.77027 21.5144 11.7721 23.7552 14.3861 25.431C17 27.1067 19.8698 27.9445 22.9955 27.9445Z" fill="#BDCFD0"/>
</g>
</svg>
