<svg width="56" height="58" viewBox="0 0 56 58" fill="none" xmlns="http://www.w3.org/2000/svg">
<g clip-path="url(#clip0_251_511)">
<path d="M55.4999 29.6443C55.4999 27.7114 55.3428 25.7891 55.0182 23.888H28.5522V34.7827H43.7041C43.0758 38.2999 41.0549 41.4104 38.102 43.3802V50.4568H47.1491C52.4423 45.5454 55.4999 38.2576 55.4999 29.6443Z" fill="#4285F4"/>
<path d="M28.5523 57.301C36.123 57.301 42.5 54.7978 47.1492 50.4673L38.1021 43.3908C35.5837 45.1124 32.3429 46.0946 28.5523 46.0946C21.2382 46.0946 15.0235 41.1199 12.8036 34.413H3.4895V41.7061C8.24866 51.27 17.9502 57.301 28.5523 57.301Z" fill="#34A853"/>
<path d="M12.8036 34.4183C11.6308 30.9064 11.6308 27.0988 12.8036 23.587V16.2939H3.48944C-0.494853 24.2893 -0.494853 33.7159 3.48944 41.7114L12.8036 34.4183Z" fill="#FBBC04"/>
<path d="M28.5523 11.9054C32.5523 11.842 36.4162 13.3629 39.3115 16.146L47.3272 8.07134C42.2487 3.26561 35.5209 0.619825 28.5523 0.69904C17.9502 0.69904 8.24866 6.73524 3.4895 16.2939L12.8036 23.587C15.0235 16.8801 21.2382 11.9054 28.5523 11.9054Z" fill="#EA4335"/>
</g>
<defs>
<clipPath id="clip0_251_511">
<rect width="55" height="56.6019" fill="white" transform="translate(0.5 0.699036)"/>
</clipPath>
</defs>
</svg>
