<svg width="29" height="26" viewBox="0 0 29 26" fill="none" xmlns="http://www.w3.org/2000/svg">
<path d="M14.2248 13.004H4.75313H14.2248ZM4.48466 14.2456L2.91981 18.92C2.06275 21.4802 1.63423 22.7602 1.94176 23.5484C2.20881 24.2331 2.7824 24.752 3.49017 24.9496C4.3052 25.177 5.53619 24.6231 7.99819 23.5153L23.7818 16.4126C26.185 15.3311 27.3865 14.7905 27.7578 14.0393C28.0805 13.3868 28.0805 12.621 27.7578 11.9684C27.3865 11.2174 26.185 10.6767 23.7818 9.59528L7.97096 2.48042C5.51638 1.37587 4.28911 0.823589 3.4749 1.05015C2.76779 1.2469 2.19426 1.76451 1.92628 2.44781C1.61769 3.23461 2.04163 4.51191 2.88955 7.06651L4.4877 11.8815C4.63332 12.3202 4.70614 12.5397 4.73488 12.764C4.76039 12.9632 4.76012 13.1647 4.73411 13.3637C4.70479 13.588 4.63142 13.8071 4.48466 14.2456Z" fill="#48637C"/>
<path d="M14.2248 13.004H4.75313M4.48466 14.2456L2.91981 18.92C2.06275 21.4802 1.63423 22.7602 1.94176 23.5484C2.20881 24.2331 2.7824 24.752 3.49017 24.9496C4.3052 25.177 5.53619 24.6231 7.99819 23.5153L23.7818 16.4126C26.185 15.3311 27.3865 14.7905 27.7578 14.0393C28.0805 13.3868 28.0805 12.621 27.7578 11.9684C27.3865 11.2174 26.185 10.6767 23.7818 9.59528L7.97096 2.48042C5.51638 1.37587 4.28911 0.823589 3.4749 1.05015C2.76779 1.2469 2.19426 1.76451 1.92628 2.44781C1.61769 3.23461 2.04163 4.51191 2.88955 7.06651L4.4877 11.8815C4.63332 12.3202 4.70614 12.5397 4.73488 12.764C4.76039 12.9632 4.76012 13.1647 4.73411 13.3637C4.70479 13.588 4.63142 13.8071 4.48466 14.2456Z" stroke="#BDCFD0" stroke-width="2" stroke-linecap="round" stroke-linejoin="round"/>
</svg>
