<svg width="24" height="24" viewBox="0 0 24 24" fill="none" xmlns="http://www.w3.org/2000/svg">
<mask id="mask0_567_586" style="mask-type:alpha" maskUnits="userSpaceOnUse" x="0" y="0" width="24" height="24">
<rect width="24" height="24" fill="#D9D9D9"/>
</mask>
<g mask="url(#mask0_567_586)">
<path d="M11.4988 22.537C9.81544 22.537 8.38862 21.9516 7.21832 20.7808C6.04803 19.61 5.46289 18.183 5.46289 16.5V5.78803C5.46289 4.56756 5.89459 3.52277 6.75799 2.65365C7.62141 1.78453 8.66364 1.34998 9.88469 1.34998C11.1057 1.34998 12.151 1.78453 13.0206 2.65365C13.8901 3.52277 14.3249 4.56756 14.3249 5.78803V15.387C14.3249 16.1717 14.0502 16.8388 13.501 17.3881C12.9517 17.9373 12.2846 18.212 11.4999 18.212C10.7151 18.212 10.048 17.9373 9.49877 17.3881C8.94948 16.8388 8.67484 16.1717 8.67484 15.387V5.78803H10.6129V15.387C10.6129 15.6423 10.6979 15.8563 10.8679 16.029C11.0379 16.2017 11.2486 16.288 11.4999 16.288C11.7512 16.288 11.9618 16.2017 12.1318 16.029C12.3018 15.8563 12.3868 15.6423 12.3868 15.387V5.78803C12.3868 5.08803 12.1451 4.49636 11.6618 4.01303C11.1785 3.52969 10.5868 3.28803 9.88682 3.28803C9.18682 3.28803 8.59515 3.52969 8.11182 4.01303C7.62848 4.49636 7.38682 5.08803 7.38682 5.78803V16.5C7.38682 17.6377 7.78791 18.6076 8.59009 19.4098C9.39226 20.212 10.3622 20.6131 11.4999 20.6131C12.6375 20.6131 13.6075 20.212 14.4096 19.4098C15.2118 18.6076 15.6129 17.6377 15.6129 16.5V5.78803H17.5368V16.5C17.5368 18.183 16.9513 19.61 15.7803 20.7808C14.6093 21.9516 13.1821 22.537 11.4988 22.537Z" fill="#48637C"/>
</g>
</svg>
