<svg width="19" height="19" viewBox="0 0 19 19" fill="none" xmlns="http://www.w3.org/2000/svg">
<path d="M2.27625 18.0625C1.72625 18.0625 1.25541 17.8667 0.863745 17.475C0.472078 17.0833 0.276245 16.6125 0.276245 16.0625V2.0625C0.276245 1.5125 0.472078 1.04167 0.863745 0.65C1.25541 0.258333 1.72625 0.0625 2.27625 0.0625H16.2762C16.8262 0.0625 17.2971 0.258333 17.6887 0.65C18.0804 1.04167 18.2762 1.5125 18.2762 2.0625V16.0625C18.2762 16.6125 18.0804 17.0833 17.6887 17.475C17.2971 17.8667 16.8262 18.0625 16.2762 18.0625H2.27625ZM2.27625 16.0625H16.2762V13.0625H13.2762C12.7762 13.6958 12.1804 14.1875 11.4887 14.5375C10.7971 14.8875 10.0596 15.0625 9.27625 15.0625C8.49291 15.0625 7.75541 14.8875 7.06375 14.5375C6.37208 14.1875 5.77625 13.6958 5.27625 13.0625H2.27625V16.0625ZM9.27625 13.0625C9.90958 13.0625 10.4846 12.8792 11.0012 12.5125C11.5179 12.1458 11.8762 11.6625 12.0762 11.0625H16.2762V2.0625H2.27625V11.0625H6.47625C6.67625 11.6625 7.03458 12.1458 7.55125 12.5125C8.06791 12.8792 8.64291 13.0625 9.27625 13.0625ZM9.27625 11.0625L5.27625 7.0625L6.67625 5.6125L8.27625 7.2125V3.0625H10.2762V7.2125L11.8762 5.6125L13.2762 7.0625L9.27625 11.0625Z" fill="#0B621E"/>
</svg>
