<svg width="35" height="34" viewBox="0 0 35 34" fill="none" xmlns="http://www.w3.org/2000/svg">
<path fill-rule="evenodd" clip-rule="evenodd" d="M10.0881 32.3544L23.9939 18.4436C26.1866 16.2501 26.1815 12.693 23.9824 10.5058C21.7927 8.32782 18.2538 8.33117 16.0683 10.5133L2.14907 24.4107C-0.0468351 26.6032 -0.0482459 30.1611 2.14595 32.3552C4.33921 34.5485 7.89526 34.5481 10.0881 32.3544ZM16.049 14.4771L20.0217 18.4498L22.008 16.4634C23.105 15.3664 23.105 13.5878 22.008 12.4908C20.9109 11.3938 19.1324 11.3938 18.0353 12.4908L16.049 14.4771Z" fill="#091D31"/>
<path d="M7.62416 2.3538C7.75607 1.86384 8.45124 1.86384 8.58315 2.3538L9.2934 4.99172C9.33942 5.16262 9.47291 5.2961 9.64381 5.34213L12.2817 6.05238C12.7717 6.18429 12.7717 6.87946 12.2817 7.01137L9.64381 7.72162C9.47291 7.76765 9.33942 7.90113 9.2934 8.07203L8.58315 10.7099C8.45124 11.1999 7.75607 11.1999 7.62416 10.7099L6.91388 8.07203C6.86788 7.90113 6.73438 7.76765 6.5635 7.72162L3.92558 7.01137C3.43561 6.87946 3.43561 6.18429 3.92558 6.05238L6.5635 5.34213C6.73438 5.2961 6.86788 5.16262 6.91388 4.99172L7.62416 2.3538Z" fill="#091D31"/>
<path d="M27.4872 0.367475C27.6191 -0.122492 28.3143 -0.122492 28.4462 0.367475L29.1565 3.00539C29.2024 3.1763 29.3361 3.30978 29.5069 3.3558L32.1447 4.06605C32.6348 4.19796 32.6348 4.89313 32.1447 5.02505L29.5069 5.7353C29.3361 5.78132 29.2024 5.9148 29.1565 6.0857L28.4462 8.72362C28.3143 9.21359 27.6191 9.21359 27.4872 8.72362L26.7769 6.0857C26.731 5.9148 26.5975 5.78132 26.4265 5.7353L23.7887 5.02505C23.2986 4.89313 23.2986 4.19796 23.7887 4.06605L26.4265 3.3558C26.5975 3.30978 26.731 3.1763 26.7769 3.00539L27.4872 0.367475Z" fill="#091D31"/>
<path d="M29.4735 18.2445C29.6054 17.7544 30.3006 17.7544 30.4325 18.2445L31.1428 20.8823C31.1887 21.0533 31.3224 21.1868 31.4932 21.2327L34.1311 21.943C34.6211 22.0749 34.6211 22.7701 34.1311 22.902L31.4932 23.6123C31.3224 23.6582 31.1887 23.7917 31.1428 23.9627L30.4325 26.6005C30.3006 27.0906 29.6054 27.0906 29.4735 26.6005L28.7632 23.9627C28.7173 23.7917 28.5839 23.6582 28.4128 23.6123L25.775 22.902C25.285 22.7701 25.285 22.0749 25.775 21.943L28.4128 21.2327C28.5839 21.1868 28.7173 21.0533 28.7632 20.8823L29.4735 18.2445Z" fill="#091D31"/>
</svg>
