<svg width="30" height="25" viewBox="0 0 30 25" fill="none" xmlns="http://www.w3.org/2000/svg">
<path d="M3 24.5C2.175 24.5 1.46875 24.2063 0.88125 23.6188C0.29375 23.0312 0 22.325 0 21.5V3.5C0 2.675 0.29375 1.96875 0.88125 1.38125C1.46875 0.79375 2.175 0.5 3 0.5H27C27.825 0.5 28.5312 0.79375 29.1188 1.38125C29.7063 1.96875 30 2.675 30 3.5V21.5C30 22.325 29.7063 23.0312 29.1188 23.6188C28.5312 24.2063 27.825 24.5 27 24.5H3ZM15 14L3 6.5V21.5H27V6.5L15 14ZM15 11L27 3.5H3L15 11ZM3 6.5V3.5V21.5V6.5Z" fill="#091D31"/>
</svg>
