<svg width="56" height="52" viewBox="0 0 56 52" fill="none" xmlns="http://www.w3.org/2000/svg">
<path d="M52.7842 0.561264L31.2881 16.4625L35.2961 7.08863L52.7842 0.561264Z" fill="#E17726" stroke="#E17726" stroke-width="0.25" stroke-linecap="round" stroke-linejoin="round"/>
<path d="M3.21584 0.561264L24.5157 16.5934L20.7039 7.10499L3.21584 0.561264ZM45.0466 37.4188L39.3208 46.1547L51.574 49.5247L55.0749 37.6151L45.0466 37.4188ZM0.941895 37.6151L4.42643 49.5247L16.6468 46.1547L10.9538 37.4188L0.941895 37.6151Z" fill="#E27625" stroke="#E27625" stroke-width="0.25" stroke-linecap="round" stroke-linejoin="round"/>
<path d="M15.9923 22.6627L12.5896 27.7995L24.6955 28.3557L24.3029 15.3173L15.9923 22.679V22.6627ZM40.0078 22.679L31.5664 15.1538L31.2883 28.3557L43.3942 27.7995L40.0078 22.679ZM16.6467 46.1547L23.992 42.621L17.6773 37.7132L16.6467 46.1547ZM32.0245 42.6047L39.3207 46.1547L38.3392 37.6969L32.0245 42.6047Z" fill="#E27625" stroke="#E27625" stroke-width="0.25" stroke-linecap="round" stroke-linejoin="round"/>
<path d="M39.3207 46.1547L32.0245 42.6211L32.6134 47.3653L32.548 49.3775L39.3207 46.1547ZM16.6467 46.1547L23.4522 49.3775L23.4031 47.3653L23.9921 42.6211L16.6467 46.1547Z" fill="#D5BFB2" stroke="#D5BFB2" stroke-width="0.25" stroke-linecap="round" stroke-linejoin="round"/>
<path d="M23.5666 34.5559L17.5137 32.7891L21.7998 30.826L23.583 34.5559H23.5666ZM32.417 34.5559L34.2165 30.8096L38.519 32.7727L32.417 34.5723V34.5559Z" fill="#233447" stroke="#233447" stroke-width="0.25" stroke-linecap="round" stroke-linejoin="round"/>
<path d="M16.6467 46.1547L17.71 37.4188L10.9536 37.6151L16.6467 46.1547ZM38.29 37.4188L39.3207 46.1547L45.0464 37.6151L38.29 37.4188ZM43.4105 27.7995L31.3046 28.3558L32.417 34.5723L34.2166 30.8097L38.5191 32.7728L43.4105 27.7995ZM17.5137 32.7891L21.7998 30.826L23.583 34.5559L24.7118 28.3394L12.6059 27.7995L17.5137 32.7891Z" fill="#CC6228" stroke="#CC6228" stroke-width="0.25" stroke-linecap="round" stroke-linejoin="round"/>
<path d="M12.606 27.7995L17.6773 37.6969L17.5138 32.7891L12.606 27.7995ZM38.5191 32.7891L38.3228 37.6969L43.3942 27.7995L38.5191 32.7891ZM24.7118 28.3558L23.5667 34.5723L25.0063 41.9013L25.3335 32.2329L24.7118 28.3558ZM31.2883 28.3558L30.6994 32.2166L30.9938 41.9013L32.4171 34.5559L31.2883 28.3394V28.3558Z" fill="#E27525" stroke="#E27525" stroke-width="0.25" stroke-linecap="round" stroke-linejoin="round"/>
<path d="M32.417 34.5559L30.9937 41.9013L32.0244 42.6211L38.3227 37.7133L38.519 32.7891L32.417 34.5559ZM17.5137 32.7891L17.6773 37.6969L23.992 42.6047L25.0062 41.9013L23.583 34.5559L17.4973 32.7891H17.5137Z" fill="#F5841F" stroke="#F5841F" stroke-width="0.25" stroke-linecap="round" stroke-linejoin="round"/>
<path d="M32.5643 49.3775L32.6134 47.3653L32.0572 46.9072H23.943L23.4031 47.3653L23.4522 49.3775L16.6467 46.1547L19.0352 48.1178L23.8612 51.4387H32.1226L36.965 48.1014L39.3207 46.1547L32.548 49.3775H32.5643Z" fill="#C0AC9D" stroke="#C0AC9D" stroke-width="0.25" stroke-linecap="round" stroke-linejoin="round"/>
<path d="M32.0244 42.6047L30.9938 41.9012H25.0063L23.992 42.621L23.4031 47.3652L23.9429 46.9071H32.0572L32.6134 47.3652L32.0244 42.621V42.6047Z" fill="#161616" stroke="#161616" stroke-width="0.25" stroke-linecap="round" stroke-linejoin="round"/>
<path d="M53.7005 17.4932L55.5 8.74092L52.7844 0.561264L32.008 15.939L40.0077 22.6627L51.2957 25.9509L53.7823 23.0553L52.7026 22.2701L54.4203 20.6996L53.1115 19.6853L54.8293 18.3766L53.6841 17.4932H53.7005ZM0.5 8.72456L2.33224 17.4932L1.15437 18.3602L2.90482 19.6689L1.59607 20.6996L3.29744 22.2701L2.21773 23.0553L4.70434 25.9509L15.9923 22.6791L23.992 15.9227L3.21565 0.561264L0.5 8.72456Z" fill="#763E1A" stroke="#763E1A" stroke-width="0.25" stroke-linecap="round" stroke-linejoin="round"/>
<path d="M51.2958 25.9509L40.0079 22.679L43.4107 27.7995L38.3393 37.6968L45.0466 37.6151H55.0749L51.2958 25.9509ZM15.9925 22.6626L4.70454 25.9509L0.941895 37.6151H10.9702L17.6775 37.6968L12.6061 27.7995L16.0088 22.6626H15.9925ZM31.2884 28.3557L32.0246 15.9226L35.2964 7.08858H20.7039L23.9758 15.9226L24.712 28.3557L24.9901 32.2492V41.9012H30.9939L31.0267 32.2492L31.2884 28.3557Z" fill="#F5841F" stroke="#F5841F" stroke-width="0.25" stroke-linecap="round" stroke-linejoin="round"/>
</svg>
