<svg width="24" height="24" viewBox="0 0 24 24" fill="none" xmlns="http://www.w3.org/2000/svg">
<g clip-path="url(#clip0_86_57)">
<path d="M7.68005 12.6C8.72005 12.76 9.20005 12.2 9.52005 11.36C9.52005 11.28 9.56005 11.2 9.60005 11.12C10.16 9.48001 9.36005 8.08001 8.88005 6.64001C8.80005 6.64001 8.72005 6.60001 8.64005 6.60001C7.36005 8.56001 6.12005 10.56 4.80005 12.56C5.92005 12.56 6.80005 12.48 7.68005 12.6Z" fill="white"/>
<path d="M16.28 15.04C15.36 16 14.36 16 13.16 15.84C13.2 15.36 13.24 14.92 13.24 14.52C14.52 14.4 14.56 14.4 15.4 13.4C15.64 13.12 15.88 12.8 16.12 12.48C16.96 11.36 17.08 10.12 16.28 8.96C15.72 8.12 15.04 7.28 14.32 6.6C13.64 5.96 13 5.44 13.16 4.36C13.16 4.16 12.76 3.72 12.44 3.64C11.96 3.48 11.72 3.88 11.64 4.36C11.6 4.64 11.6 4.92 11.6 5.24C10.88 5.08 10.24 4.92 9.44001 4.76C10.32 6.44 10.92 8 11.16 9.72C11.4 11.52 10.24 12.88 9.44001 14.48C10.08 14.48 10.52 14.52 10.96 14.48C11.4 14.44 11.64 14.64 11.6 15.12C11.56 15.36 11.56 15.6 11.56 15.84C8.84001 16.04 8.48001 16 8.04001 14.24C6.60001 14.24 5.20001 14.24 3.64001 14.24C3.76001 14.68 3.88001 15.08 3.96001 15.44C4.52001 17.68 6.28001 19.08 8.56001 19.08C10.32 19.08 12.12 19.08 13.88 19.08C17.2 19.08 17.16 19.08 19 16.28C19.4 15.68 19.92 15.12 20.52 14.8C21.2 14.44 21.2 14 20.96 13.32C19.96 13.64 19 13.88 18.04 14.2C17.44 14.4 16.68 14.6 16.28 15.04Z" fill="white"/>
<path d="M12 0C5.36 0 0 5.36 0 12C0 18.64 5.36 24 12 24C18.64 24 24 18.64 24 12C24 5.36 18.64 0 12 0ZM8.64 6.6C8.72 6.6 8.8 6.64 8.88 6.64C9.36 8.08 10.16 9.48 9.6 11.12C9.56 11.2 9.52 11.28 9.52 11.36C9.2 12.2 8.72 12.76 7.68 12.6C6.8 12.48 5.92 12.56 4.8 12.56C6.12 10.56 7.36 8.56 8.64 6.6ZM20.52 14.8C19.92 15.12 19.4 15.68 19 16.28C17.16 19.08 17.2 19.08 13.88 19.08C12.12 19.08 10.32 19.08 8.56 19.08C6.28 19.08 4.52 17.68 3.96 15.44C3.88 15.08 3.76 14.68 3.64 14.24C5.2 14.24 6.6 14.24 8.04 14.24C8.48 16 8.84 16.04 11.56 15.84C11.56 15.6 11.56 15.36 11.6 15.12C11.64 14.64 11.4 14.44 10.96 14.48C10.52 14.52 10.08 14.48 9.44 14.48C10.24 12.88 11.4 11.52 11.16 9.72C10.92 8 10.32 6.44 9.44 4.76C10.24 4.92 10.88 5.08 11.6 5.24C11.6 4.92 11.6 4.64 11.64 4.36C11.72 3.88 11.96 3.48 12.44 3.64C12.76 3.72 13.16 4.16 13.16 4.36C13 5.44 13.64 5.96 14.32 6.6C15.04 7.28 15.72 8.12 16.28 8.96C17.08 10.12 16.96 11.36 16.12 12.48C15.88 12.8 15.64 13.12 15.4 13.4C14.56 14.4 14.52 14.4 13.24 14.52C13.24 14.92 13.2 15.36 13.16 15.84C14.36 16 15.36 16 16.28 15.04C16.68 14.6 17.44 14.4 18.04 14.2C19 13.88 19.96 13.64 20.96 13.32C21.2 14 21.2 14.44 20.52 14.8Z" fill="#48637C"/>
</g>
<defs>
<clipPath id="clip0_86_57">
<rect width="24" height="24" fill="white"/>
</clipPath>
</defs>
</svg>
