<svg width="30" height="30" viewBox="0 0 30 30" fill="none" xmlns="http://www.w3.org/2000/svg">
<g clip-path="url(#clip0_251_285)">
<path d="M15 30C23.2843 30 30 23.2843 30 15C30 6.71573 23.2843 0 15 0C6.71573 0 0 6.71573 0 15C0 23.2843 6.71573 30 15 30Z" fill="white"/>
<path fill-rule="evenodd" clip-rule="evenodd" d="M15 30C23.2843 30 30 23.2843 30 15C30 6.71574 23.2843 0 15 0C6.71574 0 0 6.71574 0 15C0 23.2843 6.71574 30 15 30ZM9.3546 19.1202C9.765 19.2494 10.2096 19.314 10.6884 19.314C11.7904 19.314 12.6682 19.0594 13.3218 18.5502C13.9754 18.0334 14.4314 17.2544 14.6898 16.2132C14.7658 15.8864 14.838 15.5596 14.9064 15.2328C14.9824 14.906 15.047 14.5754 15.1002 14.241C15.1914 13.7242 15.1762 13.272 15.0546 12.8844C14.9406 12.4968 14.7392 12.17 14.4504 11.904C14.1692 11.638 13.8234 11.4404 13.413 11.3112C13.0102 11.1744 12.5694 11.106 12.0906 11.106C10.981 11.106 10.0994 11.372 9.4458 11.904C8.79222 12.436 8.34 13.215 8.0892 14.241C8.01318 14.5754 7.93722 14.906 7.8612 15.2328C7.7928 15.5596 7.72818 15.8864 7.6674 16.2132C7.58382 16.73 7.599 17.1822 7.713 17.5698C7.83462 17.9574 8.03598 18.2804 8.3172 18.5388C8.59842 18.7972 8.9442 18.991 9.3546 19.1202ZM11.9196 17.3076C11.608 17.5508 11.247 17.6724 10.8366 17.6724C10.4186 17.6724 10.1184 17.5508 9.936 17.3076C9.7536 17.0644 9.708 16.6768 9.7992 16.1448C9.85998 15.8104 9.92082 15.495 9.9816 15.1986C10.05 14.9022 10.126 14.5944 10.2096 14.2752C10.3388 13.7432 10.5554 13.3556 10.8594 13.1124C11.171 12.8692 11.532 12.7476 11.9424 12.7476C12.3528 12.7476 12.653 12.8692 12.843 13.1124C13.033 13.3556 13.0786 13.7432 12.9798 14.2752C12.9266 14.5944 12.8658 14.9022 12.7974 15.1986C12.7366 15.495 12.6644 15.8104 12.5808 16.1448C12.4516 16.6768 12.2312 17.0644 11.9196 17.3076ZM15.3842 19.1202C15.4298 19.1734 15.4906 19.2 15.5666 19.2H17.117C17.2006 19.2 17.2728 19.1734 17.3336 19.1202C17.402 19.067 17.4438 18.9986 17.459 18.915L17.9834 16.4184H19.5224C20.5028 16.4184 21.2818 16.2094 21.8594 15.7914C22.4446 15.3734 22.8322 14.7274 23.0222 13.8534C23.1134 13.4126 23.1096 13.0288 23.0108 12.702C22.912 12.3676 22.7372 12.0902 22.4864 11.8698C22.2356 11.6494 21.9202 11.486 21.5402 11.3796C21.1678 11.2732 20.7498 11.22 20.2862 11.22H17.2538C17.1778 11.22 17.1056 11.2466 17.0372 11.2998C16.9688 11.353 16.927 11.4214 16.9118 11.505L15.3386 18.915C15.3234 18.9986 15.3386 19.067 15.3842 19.1202ZM19.5908 14.8452H18.2798L18.7244 12.8046H20.0924C20.366 12.8046 20.5674 12.8502 20.6966 12.9414C20.8334 13.0326 20.9132 13.1542 20.936 13.3062C20.9588 13.4582 20.9512 13.633 20.9132 13.8306C20.8372 14.1726 20.6738 14.4272 20.423 14.5944C20.1798 14.7616 19.9024 14.8452 19.5908 14.8452Z" fill="#1C1B1F"/>
</g>
<defs>
<clipPath id="clip0_251_285">
<rect width="30" height="30" fill="white"/>
</clipPath>
</defs>
</svg>
