<svg width="19" height="18" viewBox="0 0 19 18" fill="none" xmlns="http://www.w3.org/2000/svg">
<path d="M8.27625 11V6.85L6.67625 8.45L5.27625 7L9.27625 3L13.2762 7L11.8762 8.45L10.2762 6.85V11H8.27625ZM2.27625 18C1.72625 18 1.25541 17.8042 0.863745 17.4125C0.472078 17.0208 0.276245 16.55 0.276245 16V2C0.276245 1.45 0.472078 0.979167 0.863745 0.5875C1.25541 0.195833 1.72625 0 2.27625 0H16.2762C16.8262 0 17.2971 0.195833 17.6887 0.5875C18.0804 0.979167 18.2762 1.45 18.2762 2V16C18.2762 16.55 18.0804 17.0208 17.6887 17.4125C17.2971 17.8042 16.8262 18 16.2762 18H2.27625ZM2.27625 16H16.2762V13H13.2762C12.7762 13.6333 12.1804 14.125 11.4887 14.475C10.7971 14.825 10.0596 15 9.27625 15C8.49291 15 7.75541 14.825 7.06375 14.475C6.37208 14.125 5.77625 13.6333 5.27625 13H2.27625V16ZM9.27625 13C9.90958 13 10.4846 12.8167 11.0012 12.45C11.5179 12.0833 11.8762 11.6 12.0762 11H16.2762V2H2.27625V11H6.47625C6.67625 11.6 7.03458 12.0833 7.55125 12.45C8.06791 12.8167 8.64291 13 9.27625 13Z" fill="#8C0808"/>
</svg>
