<svg width="24" height="24" viewBox="0 0 24 24" fill="none" xmlns="http://www.w3.org/2000/svg">
<mask id="mask0_185_490" style="mask-type:alpha" maskUnits="userSpaceOnUse" x="0" y="0" width="24" height="24">
<rect width="24" height="24" fill="#D9D9D9"/>
</mask>
<g mask="url(#mask0_185_490)">
<path d="M5.64999 10.025L7.59999 10.85C7.83332 10.3833 8.07499 9.93333 8.32499 9.5C8.57499 9.06667 8.84999 8.63333 9.14999 8.2L7.74999 7.925L5.64999 10.025ZM9.19999 12.1L12.05 14.925C12.75 14.6583 13.5 14.25 14.3 13.7C15.1 13.15 15.85 12.525 16.55 11.825C17.7167 10.6583 18.6292 9.3625 19.2875 7.9375C19.9458 6.5125 20.2333 5.2 20.15 4C18.95 3.91667 17.6333 4.20417 16.2 4.8625C14.7667 5.52083 13.4667 6.43333 12.3 7.6C11.6 8.3 10.975 9.05 10.425 9.85C9.87499 10.65 9.46665 11.4 9.19999 12.1ZM13.65 10.475C13.2667 10.0917 13.075 9.62083 13.075 9.0625C13.075 8.50417 13.2667 8.03333 13.65 7.65C14.0333 7.26667 14.5083 7.075 15.075 7.075C15.6417 7.075 16.1167 7.26667 16.5 7.65C16.8833 8.03333 17.075 8.50417 17.075 9.0625C17.075 9.62083 16.8833 10.0917 16.5 10.475C16.1167 10.8583 15.6417 11.05 15.075 11.05C14.5083 11.05 14.0333 10.8583 13.65 10.475ZM14.125 18.5L16.225 16.4L15.95 15C15.5167 15.3 15.0833 15.5708 14.65 15.8125C14.2167 16.0542 13.7667 16.2917 13.3 16.525L14.125 18.5ZM21.95 2.175C22.2667 4.19167 22.0708 6.15417 21.3625 8.0625C20.6542 9.97083 19.4333 11.7917 17.7 13.525L18.2 16C18.2667 16.3333 18.25 16.6583 18.15 16.975C18.05 17.2917 17.8833 17.5667 17.65 17.8L13.45 22L11.35 17.075L7.07499 12.8L2.14999 10.7L6.32499 6.5C6.55832 6.26667 6.83749 6.1 7.16249 6C7.48749 5.9 7.81665 5.88333 8.14999 5.95L10.625 6.45C12.3583 4.71667 14.175 3.49167 16.075 2.775C17.975 2.05833 19.9333 1.85833 21.95 2.175ZM3.92499 15.975C4.50832 15.3917 5.22082 15.0958 6.06249 15.0875C6.90415 15.0792 7.61665 15.3667 8.19999 15.95C8.78332 16.5333 9.07082 17.2458 9.06249 18.0875C9.05415 18.9292 8.75832 19.6417 8.17499 20.225C7.75832 20.6417 7.06249 21 6.08749 21.3C5.11249 21.6 3.76665 21.8667 2.04999 22.1C2.28332 20.3833 2.54999 19.0375 2.84999 18.0625C3.14999 17.0875 3.50832 16.3917 3.92499 15.975ZM5.34999 17.375C5.18332 17.5417 5.01665 17.8458 4.84999 18.2875C4.68332 18.7292 4.56665 19.175 4.49999 19.625C4.94999 19.5583 5.39582 19.4458 5.83749 19.2875C6.27915 19.1292 6.58332 18.9667 6.74999 18.8C6.94999 18.6 7.05832 18.3583 7.07499 18.075C7.09165 17.7917 6.99999 17.55 6.79999 17.35C6.59999 17.15 6.35832 17.0542 6.07499 17.0625C5.79165 17.0708 5.54999 17.175 5.34999 17.375Z" fill="#1C1B1F"/>
</g>
</svg>
