<svg width="40" height="40" viewBox="0 0 40 40" fill="none" xmlns="http://www.w3.org/2000/svg">
<path d="M37.1276 19.9882H32.9201C31.6634 19.9882 30.6452 21.0378 30.6452 22.3331V28.6281C30.6452 29.9234 29.6269 30.973 28.3704 30.973H11.6314C10.3747 30.973 9.35645 32.0226 9.35645 33.318V37.6551C9.35645 38.9504 10.3747 40 11.6314 40H29.3392C30.5959 40 31.5996 38.9504 31.5996 37.6551V34.1754C31.5996 32.8801 32.6179 31.9612 33.8745 31.9612H37.1268C38.3834 31.9612 39.4017 30.9116 39.4017 29.6162V22.3059C39.4017 21.0106 38.3842 19.9882 37.1276 19.9882Z" fill="#091D31"/>
<path d="M9.35562 11.3719C9.35562 10.0766 10.3739 9.02695 11.6306 9.02695H28.3593C29.6159 9.02695 30.6341 7.97733 30.6341 6.68208V2.34493C30.6341 1.0496 29.6159 0 28.3593 0H10.6608C9.40424 0 8.38594 1.0496 8.38594 2.34493V5.68687C8.38594 6.98212 7.36776 8.03175 6.11109 8.03175H2.87326C1.61663 8.03175 0.598389 9.08137 0.598389 10.3767V17.695C0.598389 18.9903 1.62089 19.9872 2.87753 19.9872H7.085C8.34168 19.9872 9.35998 18.9377 9.35998 17.6424L9.35562 11.3719Z" fill="#091D31"/>
<path d="M18.02 15.4291H22.0616C23.3787 15.4291 24.4472 16.5313 24.4472 17.8881V22.0541C24.4472 23.4116 23.3778 24.513 22.0616 24.513H18.02C16.703 24.513 15.6345 23.4108 15.6345 22.0541V17.8881C15.6345 16.5305 16.7039 15.4291 18.02 15.4291Z" fill="#091D31"/>
</svg>
