<svg width="30" height="28" viewBox="0 0 30 28" fill="none" xmlns="http://www.w3.org/2000/svg">
<path d="M14.225 14.004H4.75328M4.48481 15.2456L2.91996 19.92C2.06291 22.4802 1.63438 23.7602 1.94191 24.5484C2.20896 25.2331 2.78255 25.752 3.49033 25.9496C4.30535 26.177 5.53635 25.6231 7.99834 24.5153L23.782 17.4126C26.1851 16.3311 27.3867 15.7905 27.758 15.0393C28.0807 14.3868 28.0807 13.621 27.758 12.9684C27.3867 12.2174 26.1851 11.6767 23.782 10.5953L7.97112 3.48042C5.51654 2.37587 4.28926 1.82359 3.47505 2.05015C2.76794 2.2469 2.19442 2.76451 1.92643 3.44781C1.61784 4.23461 2.04179 5.51191 2.8897 8.06651L4.48785 12.8815C4.63347 13.3202 4.7063 13.5397 4.73503 13.764C4.76054 13.9632 4.76028 14.1647 4.73427 14.3637C4.70494 14.588 4.63157 14.8071 4.48481 15.2456Z" stroke="#1C1B1F" stroke-width="3" stroke-linecap="round" stroke-linejoin="round"/>
</svg>
