<svg width="16" height="20" viewBox="0 0 16 20" fill="none" xmlns="http://www.w3.org/2000/svg">
<path d="M5.27625 20C4.72624 20 4.25541 19.8042 3.86375 19.4125C3.47208 19.0208 3.27625 18.55 3.27625 18V17C3.27625 16.2167 3.44708 15.4917 3.78875 14.825C4.13041 14.1583 4.57624 13.6 5.12625 13.15L4.50125 9H2.27625C1.72625 9 1.25541 8.80417 0.863745 8.4125C0.472078 8.02083 0.276245 7.55 0.276245 7V3C0.276245 2.45 0.472078 1.97917 0.863745 1.5875C1.25541 1.19583 1.72625 1 2.27625 1H7.27625V0H11.2762V1H15.2512L13.4262 13.15C13.9762 13.6 14.4221 14.1583 14.7637 14.825C15.1054 15.4917 15.2762 16.2167 15.2762 17V18C15.2762 18.55 15.0804 19.0208 14.6887 19.4125C14.2971 19.8042 13.8262 20 13.2762 20H5.27625ZM4.20125 7L3.60125 3H2.27625V7H4.20125ZM9.27625 17C9.55958 17 9.79708 16.9042 9.98875 16.7125C10.1804 16.5208 10.2762 16.2833 10.2762 16C10.2762 15.7167 10.1804 15.4792 9.98875 15.2875C9.79708 15.0958 9.55958 15 9.27625 15C8.99291 15 8.75541 15.0958 8.56375 15.2875C8.37208 15.4792 8.27625 15.7167 8.27625 16C8.27625 16.2833 8.37208 16.5208 8.56375 16.7125C8.75541 16.9042 8.99291 17 9.27625 17ZM6.97625 12H11.5762L12.9262 3H5.62625L6.97625 12ZM5.27625 18H13.2762V17C13.2762 16.1667 12.9846 15.4583 12.4012 14.875C11.8179 14.2917 11.1096 14 10.2762 14H8.27625C7.44291 14 6.73458 14.2917 6.15125 14.875C5.56791 15.4583 5.27625 16.1667 5.27625 17V18Z" fill="#1C1B1F"/>
</svg>
