<svg width="30" height="30" viewBox="0 0 30 30" fill="none" xmlns="http://www.w3.org/2000/svg">
<rect width="30" height="30" rx="15" fill="#BDCFD0"/>
<path d="M18.8152 17.0228C18.8152 15 17.6013 14.3063 15.1734 14.0164C13.4392 13.7847 13.0924 13.3227 13.0924 12.5139C13.0924 11.7051 13.6709 11.1848 14.8266 11.1848C15.8671 11.1848 16.4456 11.5316 16.7342 12.3987C16.7925 12.5722 16.9659 12.6873 17.1393 12.6873H18.0647C18.2964 12.6873 18.4698 12.5139 18.4698 12.2822V12.2239C18.2381 10.9517 17.1976 9.96949 15.8685 9.85434V8.46699C15.8685 8.2353 15.6951 8.06189 15.4065 8.005H14.5394C14.3077 8.005 14.1343 8.17842 14.0774 8.46699V9.79607C12.3432 10.0278 11.2445 11.1834 11.2445 12.629C11.2445 14.5366 12.4001 15.2886 14.828 15.5771C16.447 15.8657 16.9673 16.2126 16.9673 17.1379C16.9673 18.0633 16.1584 18.6987 15.0597 18.6987C13.5572 18.6987 13.0369 18.0633 12.8635 17.1962C12.8052 16.9645 12.6318 16.8493 12.4584 16.8493H11.4762C11.2445 16.8493 11.071 17.0228 11.071 17.2544V17.3127C11.3027 18.7583 12.2267 19.7988 14.1343 20.0874V21.4748C14.1343 21.7064 14.3077 21.8799 14.5963 21.9367H15.4634C15.6951 21.9367 15.8685 21.7633 15.9254 21.4748V20.0874C17.6596 19.7975 18.8152 18.5835 18.8152 17.0228Z" fill="#F1F1F1"/>
<path d="M12.052 23.0924C7.54312 21.4734 5.23041 16.4442 6.90772 11.9936C7.77481 9.56576 9.68241 7.71643 12.052 6.84933C12.2837 6.73418 12.3988 6.56077 12.3988 6.27081V5.46199C12.3988 5.2303 12.2837 5.05688 12.052 5C11.9937 5 11.8786 5 11.8203 5.05827C6.32919 6.79245 3.32281 12.6304 5.057 18.1229C6.09751 21.3596 8.58363 23.8457 11.8203 24.8862C12.052 25.0014 12.2823 24.8862 12.3406 24.6545C12.3988 24.5963 12.3988 24.5394 12.3988 24.4229V23.614C12.3988 23.4392 12.2254 23.2089 12.052 23.0924ZM18.1799 5.05688C17.9482 4.94173 17.7179 5.05688 17.6597 5.28857C17.6014 5.34684 17.6014 5.40372 17.6014 5.52026V6.32908C17.6014 6.56077 17.7748 6.79107 17.9482 6.9076C22.4571 8.52664 24.7698 13.5558 23.0925 18.0064C22.2254 20.4342 20.3178 22.2836 17.9482 23.1507C17.7165 23.2658 17.6014 23.4392 17.6014 23.7292V24.538C17.6014 24.7697 17.7165 24.9431 17.9482 25C18.0065 25 18.1216 25 18.1799 24.9417C23.671 23.2075 26.6774 17.3696 24.9432 11.8771C23.9027 8.58352 21.3583 6.09739 18.1799 5.05688Z" fill="#F1F1F1"/>
</svg>
