<svg width="56" height="34" viewBox="0 0 56 34" fill="none" xmlns="http://www.w3.org/2000/svg">
<path d="M11.6133 6.64324C20.6628 -2.21441 35.3372 -2.21441 44.3867 6.64324L45.4763 7.70886C45.5837 7.81296 45.6691 7.93757 45.7274 8.07531C45.7858 8.21306 45.8158 8.36111 45.8158 8.51069C45.8158 8.66028 45.7858 8.80833 45.7274 8.94607C45.6691 9.08381 45.5837 9.20843 45.4763 9.31253L41.7504 12.959C41.6405 13.0655 41.4935 13.125 41.3404 13.125C41.1874 13.125 41.0404 13.0655 40.9305 12.959L39.4318 11.4917C33.119 5.31384 22.8825 5.31384 16.5682 11.4917L14.9631 13.0624C14.8532 13.1689 14.7062 13.2285 14.5532 13.2285C14.4001 13.2285 14.2531 13.1689 14.1432 13.0624L10.4173 9.41594C10.3099 9.31185 10.2245 9.18723 10.1662 9.04949C10.1079 8.91175 10.0778 8.76369 10.0778 8.61411C10.0778 8.46453 10.1079 8.31647 10.1662 8.17873C10.2245 8.04099 10.3099 7.91637 10.4173 7.81227L11.6133 6.64324ZM52.0933 14.1835L55.4085 17.4298C55.516 17.5339 55.6014 17.6585 55.6597 17.7963C55.718 17.934 55.7481 18.0821 55.7481 18.2316C55.7481 18.3812 55.718 18.5293 55.6597 18.667C55.6014 18.8048 55.516 18.9294 55.4085 19.0335L40.4569 33.6673C40.2373 33.8807 39.9433 34 39.6371 34C39.331 34 39.0369 33.8807 38.8173 33.6673L28.2061 23.2809C28.1512 23.2273 28.0775 23.1973 28.0008 23.1973C27.924 23.1973 27.8503 23.2273 27.7954 23.2809L17.1842 33.6673C16.9646 33.8807 16.6706 34 16.3644 34C16.0583 34 15.7642 33.8807 15.5446 33.6673L0.591482 19.0335C0.484065 18.9294 0.398658 18.8048 0.340333 18.667C0.282007 18.5293 0.251953 18.3812 0.251953 18.2316C0.251953 18.0821 0.282007 17.934 0.340333 17.7963C0.398658 17.6585 0.484065 17.5339 0.591482 17.4298L3.90823 14.1835C4.12775 13.9706 4.42152 13.8516 4.7273 13.8516C5.03309 13.8516 5.32686 13.9706 5.54638 14.1835L16.1576 24.5699C16.2125 24.6235 16.2862 24.6536 16.3629 24.6536C16.4397 24.6536 16.5134 24.6235 16.5682 24.5699L27.1794 14.1835C27.399 13.9702 27.6931 13.8508 27.9993 13.8508C28.3054 13.8508 28.5995 13.9702 28.8191 14.1835L39.4318 24.5699C39.4867 24.6235 39.5604 24.6536 39.6371 24.6536C39.7139 24.6536 39.7876 24.6235 39.8424 24.5699L50.4536 14.1835C50.6732 13.9702 50.9673 13.8508 51.2735 13.8508C51.5796 13.8508 51.8737 13.9702 52.0933 14.1835Z" fill="#1C1B1F"/>
</svg>
