<svg width="26" height="24" viewBox="0 0 26 24" fill="none" xmlns="http://www.w3.org/2000/svg">
<path d="M2.92607 24C2.13645 24 1.45136 23.7149 0.870817 23.1447C0.290272 22.5746 0 21.8843 0 21.0739V2.9572C0 2.159 0.290272 1.46659 0.870817 0.879968C1.45136 0.293322 2.13645 0 2.92607 0H21.0428C21.8618 0 22.5593 0.293322 23.1356 0.879968C23.7119 1.46659 24 2.159 24 2.9572V4.63813H13.8521C12.7315 4.63813 11.7925 5.01744 11.035 5.77606C10.2776 6.53468 9.89883 7.45239 9.89883 8.52918V15.5642C9.89883 16.6641 10.2776 17.5824 11.035 18.3191C11.7925 19.0558 12.7315 19.4241 13.8521 19.4241H24V21.0739C24 21.8833 23.7119 22.5733 23.1356 23.144C22.5593 23.7147 21.8618 24 21.0428 24H2.92607ZM13.8521 17.8366C13.1673 17.8366 12.6018 17.6231 12.1556 17.1962C11.7095 16.7692 11.4864 16.2226 11.4864 15.5564V8.52918C11.4864 7.86511 11.7095 7.31518 12.1556 6.87938C12.6018 6.44358 13.1673 6.22568 13.8521 6.22568H22.9105C23.5953 6.22568 24.1608 6.44358 24.607 6.87938C25.0532 7.31518 25.2763 7.86511 25.2763 8.52918V15.5564C25.2763 16.2226 25.0532 16.7692 24.607 17.1962C24.1608 17.6231 23.5953 17.8366 22.9105 17.8366H13.8521ZM17.3385 14.0078C17.8573 14.0078 18.3191 13.8054 18.7237 13.4008C19.1284 12.9961 19.3307 12.524 19.3307 11.9844C19.3307 11.4656 19.1284 11.0091 18.7237 10.6148C18.3191 10.2205 17.8573 10.0233 17.3385 10.0233C16.8197 10.0233 16.358 10.2205 15.9533 10.6148C15.5486 11.0091 15.3463 11.4656 15.3463 11.9844C15.3463 12.524 15.5486 12.9961 15.9533 13.4008C16.358 13.8054 16.8197 14.0078 17.3385 14.0078Z" fill="#1C1B1F"/>
</svg>
