<svg width="305" height="36" viewBox="0 0 305 36" fill="none" xmlns="http://www.w3.org/2000/svg">
<path d="M12.7938 7.15469C22.2282 -2.07968 37.5266 -2.07968 46.961 7.15469L48.0969 8.26563C48.2089 8.37416 48.298 8.50407 48.3588 8.64767C48.4196 8.79127 48.4509 8.94563 48.4509 9.10157C48.4509 9.25751 48.4196 9.41186 48.3588 9.55546C48.298 9.69906 48.2089 9.82898 48.0969 9.93751L44.2126 13.7391C44.098 13.8501 43.9447 13.9122 43.7852 13.9122C43.6257 13.9122 43.4724 13.8501 43.3579 13.7391L41.7954 12.2094C35.2141 5.76876 24.5423 5.76876 17.9594 12.2094L16.286 13.8469C16.1714 13.9579 16.0182 14.02 15.8587 14.02C15.6991 14.02 15.5459 13.9579 15.4313 13.8469L11.5469 10.0453C11.435 9.9368 11.3459 9.80688 11.2851 9.66328C11.2243 9.51968 11.193 9.36532 11.193 9.20938C11.193 9.05344 11.2243 8.89908 11.2851 8.75548C11.3459 8.61189 11.435 8.48197 11.5469 8.37344L12.7938 7.15469ZM54.9954 15.0156L58.4516 18.4C58.5636 18.5085 58.6527 18.6384 58.7135 18.782C58.7743 18.9256 58.8056 19.08 58.8056 19.2359C58.8056 19.3919 58.7743 19.5462 58.7135 19.6898C58.6527 19.8334 58.5636 19.9634 58.4516 20.0719L42.8641 35.3281C42.6352 35.5505 42.3286 35.6749 42.0094 35.6749C41.6903 35.6749 41.3837 35.5505 41.1548 35.3281L30.0923 24.5C30.035 24.4441 29.9582 24.4128 29.8782 24.4128C29.7982 24.4128 29.7213 24.4441 29.6641 24.5L18.6016 35.3281C18.3727 35.5505 18.0661 35.6749 17.7469 35.6749C17.4278 35.6749 17.1212 35.5505 16.8923 35.3281L1.30319 20.0719C1.1912 19.9634 1.10216 19.8334 1.04136 19.6898C0.980551 19.5462 0.949219 19.3919 0.949219 19.2359C0.949219 19.08 0.980551 18.9256 1.04136 18.782C1.10216 18.6384 1.1912 18.5085 1.30319 18.4L4.761 15.0156C4.98985 14.7937 5.29612 14.6696 5.61491 14.6696C5.9337 14.6696 6.23996 14.7937 6.46881 15.0156L17.5313 25.8438C17.5885 25.8997 17.6654 25.931 17.7454 25.931C17.8254 25.931 17.9022 25.8997 17.9594 25.8438L29.0219 15.0156C29.2509 14.7932 29.5575 14.6688 29.8766 14.6688C30.1958 14.6688 30.5024 14.7932 30.7313 15.0156L41.7954 25.8438C41.8526 25.8997 41.9294 25.931 42.0094 25.931C42.0894 25.931 42.1663 25.8997 42.2235 25.8438L53.286 15.0156C53.5149 14.7932 53.8215 14.6688 54.1407 14.6688C54.4599 14.6688 54.7664 14.7932 54.9954 15.0156ZM79.5969 30.4063L83.7735 13.7031C84.0204 12.7813 84.2329 11.7906 84.5157 10.2344C84.7282 11.7906 84.9766 12.7813 85.1532 13.7031L88.7626 30.4063H96.2313L102.53 5.63282H96.7954L93.3282 20.8516C92.9839 22.2995 92.7127 23.7639 92.5157 25.2391C92.2313 23.5766 91.9485 22.3375 91.6298 20.8859L88.2673 5.63282H80.7641L77.1188 20.8859C76.7924 22.3281 76.5094 23.7798 76.2704 25.2391C76.0309 23.7798 75.7474 22.3281 75.4204 20.8859L72.0235 5.63282H66.0422L72.3063 30.4063H79.5969ZM106.805 31.0438C109.636 31.0438 111.441 29.875 112.361 28.1766C112.255 28.7078 112.22 29.2391 112.22 29.7703V30.4063H116.963V20.1781C116.963 15.2953 114.733 12.4641 109.283 12.4641C104.575 12.4641 101.497 15.0828 101.214 18.6922H106.417C106.592 17.0984 107.725 16.1453 109.459 16.1453C111.088 16.1453 111.972 17.0641 111.972 18.1266C111.972 18.9047 111.513 19.3641 110.131 19.5406L107.655 19.825C103.974 20.2844 100.825 21.6297 100.825 25.5219C100.825 29.0609 103.763 31.0438 106.805 31.0438ZM108.399 27.3984C107.017 27.3984 105.992 26.6203 105.992 25.2734C105.992 23.9656 107.159 23.3281 108.93 23.0094L110.133 22.7969C111.158 22.5844 111.725 22.4078 112.078 22.0891V23.7172C112.078 25.9125 110.484 27.3984 108.397 27.3984H108.399ZM119.428 5.63282V30.4063H124.559V5.63282H119.428ZM127.528 5.63282V30.4063H132.659V5.63282H127.528ZM143.861 31.0438C148.745 31.0438 151.894 28.2828 152.249 24.6734H147.081C146.833 26.2656 145.488 27.15 143.861 27.15C141.667 27.15 140.074 25.3813 140.039 22.9391H152.355V21.9484C152.355 16.2141 149.205 12.4641 143.755 12.4641C138.517 12.4641 134.836 16.1438 134.836 21.7C134.836 27.7156 138.624 31.0438 143.861 31.0438ZM140.002 19.5766C140.216 17.5953 141.667 16.1438 143.72 16.1438C145.702 16.1438 147.08 17.5234 147.117 19.5766H140.002ZM163.216 30.7594C164.349 30.7594 165.445 30.5828 165.941 30.4422V26.5469C165.531 26.6174 165.117 26.653 164.702 26.6531C162.827 26.6531 162.155 25.5906 162.155 23.8563V17.0625H166.33V13.0625H162.155V6.90626H157.058V13.0625H153.306V17.0625H157.058V24.5656C157.058 28.6703 159.111 30.7594 163.216 30.7594ZM180.538 31.0438C187.545 31.0438 191.792 26.9375 192.324 21.0281H186.767C186.342 24.2469 184.077 26.4422 180.75 26.4422C176.822 26.4422 174.061 23.2578 174.061 17.8781C174.061 12.6047 176.928 9.59688 180.856 9.59688C184.219 9.59688 186.13 11.65 186.519 14.6578H192.217C191.65 8.50001 187.12 4.99532 180.892 4.99532C173.778 4.99532 168.328 9.80782 168.328 17.8781C168.328 26.2297 173.106 31.0438 180.538 31.0438ZM203.448 31.0438C208.792 31.0438 212.58 27.6813 212.58 21.8063C212.58 16.0375 208.792 12.4625 203.448 12.4625C198.139 12.4625 194.353 16.0375 194.353 21.8063C194.353 27.6813 198.105 31.0438 203.448 31.0438ZM203.448 27.0797C201.077 27.0797 199.555 25.1328 199.555 21.8063C199.555 18.4094 201.148 16.4984 203.448 16.4984C205.784 16.4984 207.377 18.4094 207.377 21.8063C207.377 25.1344 205.819 27.0797 203.448 27.0797ZM219.733 30.4063V20.25C219.733 18.0906 221.078 16.4984 222.989 16.4984C224.794 16.4984 225.856 17.8781 225.856 20.1781V30.4063H230.988V19.4359C230.988 15.2594 228.794 12.4625 224.864 12.4625C222.139 12.4625 220.477 13.7719 219.592 15.3297C219.684 14.8033 219.731 14.2702 219.733 13.7359V13.0641H214.602V30.4063H219.733ZM239.189 30.4063V20.25C239.189 18.0906 240.533 16.4984 242.444 16.4984C244.25 16.4984 245.311 17.8781 245.311 20.1781V30.4063H250.442V19.4359C250.442 15.2594 248.248 12.4625 244.32 12.4625C241.595 12.4625 239.931 13.7719 239.047 15.3297C239.153 14.6922 239.189 14.1969 239.189 13.7359V13.0641H234.056V30.4063H239.189ZM261.484 31.0438C266.367 31.0438 269.517 28.2828 269.872 24.6734H264.705C264.456 26.2656 263.113 27.15 261.484 27.15C259.289 27.15 257.697 25.3813 257.663 22.9391H269.978V21.9484C269.978 16.2141 266.828 12.4641 261.378 12.4641C256.141 12.4641 252.459 16.1438 252.459 21.7C252.459 27.7156 256.247 31.0438 261.484 31.0438ZM257.627 19.5766C257.839 17.5953 259.289 16.1438 261.342 16.1438C263.323 16.1438 264.705 17.5234 264.739 19.5766H257.627ZM280.997 31.0438C286.377 31.0438 289.314 28.1063 289.88 23.5406H284.748C284.57 25.4516 283.473 27.0797 281.173 27.0797C278.838 27.0797 277.245 24.9203 277.245 21.7359C277.245 18.2672 279.086 16.4984 281.28 16.4984C283.439 16.4984 284.5 18.0547 284.642 19.8594H289.773C289.384 15.6484 286.517 12.4625 281.244 12.4625C276.113 12.4625 272.042 15.8609 272.042 21.7359C272.042 27.5391 275.475 31.0438 280.997 31.0438ZM300.98 30.7594C302.113 30.7594 303.209 30.5828 303.705 30.4422V26.5469C303.295 26.6174 302.881 26.6529 302.466 26.6531C300.591 26.6531 299.917 25.5906 299.917 23.8563V17.0625H304.094V13.0625H299.917V6.90626H294.822V13.0625H291.07V17.0625H294.822V24.5656C294.822 28.6703 296.873 30.7594 300.98 30.7594Z" fill="#1C1B1F"/>
</svg>
