<svg width="56" height="35" viewBox="0 0 56 35" fill="none" xmlns="http://www.w3.org/2000/svg">
<path d="M11.6133 7.14324C20.6628 -1.71441 35.3372 -1.71441 44.3867 7.14324L45.4763 8.20886C45.5837 8.31296 45.6691 8.43757 45.7274 8.57531C45.7858 8.71306 45.8158 8.86111 45.8158 9.01069C45.8158 9.16028 45.7858 9.30833 45.7274 9.44607C45.6691 9.58381 45.5837 9.70843 45.4763 9.81253L41.7504 13.459C41.6405 13.5655 41.4935 13.625 41.3404 13.625C41.1874 13.625 41.0404 13.5655 40.9305 13.459L39.4318 11.9917C33.119 5.81384 22.8825 5.81384 16.5682 11.9917L14.9631 13.5624C14.8532 13.6689 14.7062 13.7285 14.5532 13.7285C14.4001 13.7285 14.2531 13.6689 14.1432 13.5624L10.4173 9.91594C10.3099 9.81185 10.2245 9.68723 10.1662 9.54949C10.1079 9.41175 10.0778 9.26369 10.0778 9.11411C10.0778 8.96453 10.1079 8.81647 10.1662 8.67873C10.2245 8.54099 10.3099 8.41637 10.4173 8.31227L11.6133 7.14324ZM52.0933 14.6835L55.4085 17.9298C55.516 18.0339 55.6014 18.1585 55.6597 18.2963C55.718 18.434 55.7481 18.5821 55.7481 18.7316C55.7481 18.8812 55.718 19.0293 55.6597 19.167C55.6014 19.3048 55.516 19.4294 55.4085 19.5335L40.4569 34.1673C40.2373 34.3807 39.9433 34.5 39.6371 34.5C39.331 34.5 39.0369 34.3807 38.8173 34.1673L28.2061 23.7809C28.1512 23.7273 28.0775 23.6973 28.0008 23.6973C27.924 23.6973 27.8503 23.7273 27.7954 23.7809L17.1842 34.1673C16.9646 34.3807 16.6706 34.5 16.3644 34.5C16.0583 34.5 15.7642 34.3807 15.5446 34.1673L0.591482 19.5335C0.484065 19.4294 0.398658 19.3048 0.340333 19.167C0.282007 19.0293 0.251953 18.8812 0.251953 18.7316C0.251953 18.5821 0.282007 18.434 0.340333 18.2963C0.398658 18.1585 0.484065 18.0339 0.591482 17.9298L3.90823 14.6835C4.12775 14.4706 4.42152 14.3516 4.7273 14.3516C5.03309 14.3516 5.32686 14.4706 5.54638 14.6835L16.1576 25.0699C16.2125 25.1235 16.2862 25.1536 16.3629 25.1536C16.4397 25.1536 16.5134 25.1235 16.5682 25.0699L27.1794 14.6835C27.399 14.4702 27.6931 14.3508 27.9993 14.3508C28.3054 14.3508 28.5995 14.4702 28.8191 14.6835L39.4318 25.0699C39.4867 25.1235 39.5604 25.1536 39.6371 25.1536C39.7139 25.1536 39.7876 25.1235 39.8424 25.0699L50.4536 14.6835C50.6732 14.4702 50.9673 14.3508 51.2735 14.3508C51.5796 14.3508 51.8737 14.4702 52.0933 14.6835Z" fill="white"/>
</svg>
